<?plantuml 1.2026.2?><svg xmlns="http://www.w3.org/2000/svg" xmlns:xlink="http://www.w3.org/1999/xlink" contentStyleType="text/css" data-diagram-type="DESCRIPTION" height="749px" preserveAspectRatio="none" style="width:898px;height:749px;background:#FFFFFF;" version="1.1" viewBox="0 0 898 749" width="898px" zoomAndPan="magnify"><title>jwt-for-beginners &#8212; Component Architecture</title><defs/><g><g class="title" data-source-line="1"><text fill="#000000" font-family="sans-serif" font-size="14" font-weight="bold" lengthAdjust="spacing" textLength="332.999" x="275.792" y="23.5352">jwt-for-beginners &#8212; Component Architecture</text></g><!--cluster src/--><g class="cluster" data-qualified-name="src." data-source-line="8" id="ent0003"><path d="M8.5,43.4883 L39.1475,43.4883 A3.75,3.75 0 0 1 41.6475,45.9883 L48.6475,65.9766 L635.5,65.9766 A2.5,2.5 0 0 1 638,68.4766 L638,621.7883 A2.5,2.5 0 0 1 635.5,624.2883 L8.5,624.2883 A2.5,2.5 0 0 1 6,621.7883 L6,45.9883 A2.5,2.5 0 0 1 8.5,43.4883" fill="none" style="stroke:#000000;stroke-width:1.5;"/><line style="stroke:#000000;stroke-width:1.5;" x1="6" x2="48.6475" y1="65.9766" y2="65.9766"/><text fill="#000000" font-family="sans-serif" font-size="14" font-weight="bold" lengthAdjust="spacing" textLength="29.6475" x="10" y="59.0234">src/</text></g><!--cluster routes--><g class="cluster" data-qualified-name="src..routes" data-source-line="11" id="ent0006"><path d="M32.5,336.1983 L79.793,336.1983 A3.75,3.75 0 0 1 82.293,338.6983 L89.293,358.6866 L311.5,358.6866 A2.5,2.5 0 0 1 314,361.1866 L314,437.6783 A2.5,2.5 0 0 1 311.5,440.1783 L32.5,440.1783 A2.5,2.5 0 0 1 30,437.6783 L30,338.6983 A2.5,2.5 0 0 1 32.5,336.1983" fill="none" style="stroke:#000000;stroke-width:1.5;"/><line style="stroke:#000000;stroke-width:1.5;" x1="30" x2="89.293" y1="358.6866" y2="358.6866"/><text fill="#000000" font-family="sans-serif" font-size="14" font-weight="bold" lengthAdjust="spacing" textLength="46.293" x="34" y="351.7334">routes</text></g><!--cluster middleware--><g class="cluster" data-qualified-name="src..middleware" data-source-line="15" id="ent0009"><path d="M340.5,336.1983 L425.8145,336.1983 A3.75,3.75 0 0 1 428.3145,338.6983 L435.3145,358.6866 L563.5,358.6866 A2.5,2.5 0 0 1 566,361.1866 L566,437.6783 A2.5,2.5 0 0 1 563.5,440.1783 L340.5,440.1783 A2.5,2.5 0 0 1 338,437.6783 L338,338.6983 A2.5,2.5 0 0 1 340.5,336.1983" fill="none" style="stroke:#000000;stroke-width:1.5;"/><line style="stroke:#000000;stroke-width:1.5;" x1="338" x2="435.3145" y1="358.6866" y2="358.6866"/><text fill="#000000" font-family="sans-serif" font-size="14" font-weight="bold" lengthAdjust="spacing" textLength="84.3145" x="342" y="351.7334">middleware</text></g><!--cluster services--><g class="cluster" data-qualified-name="src..services" data-source-line="18" id="ent0011"><path d="M32.5,496.3083 L92.4121,496.3083 A3.75,3.75 0 0 1 94.9121,498.8083 L101.9121,518.7966 L611.5,518.7966 A2.5,2.5 0 0 1 614,521.2966 L614,597.7883 A2.5,2.5 0 0 1 611.5,600.2883 L32.5,600.2883 A2.5,2.5 0 0 1 30,597.7883 L30,498.8083 A2.5,2.5 0 0 1 32.5,496.3083" fill="none" style="stroke:#000000;stroke-width:1.5;"/><line style="stroke:#000000;stroke-width:1.5;" x1="30" x2="101.9121" y1="518.7966" y2="518.7966"/><text fill="#000000" font-family="sans-serif" font-size="14" font-weight="bold" lengthAdjust="spacing" textLength="58.9121" x="34" y="511.8434">services</text></g><!--entity server--><g class="entity" data-qualified-name="src..server" data-source-line="9" id="ent0004"><rect fill="#F1F1F1" height="52.9766" rx="2.5" ry="2.5" style="stroke:#181818;stroke-width:0.5;" width="99.2559" x="429.37" y="78.4883"/><text fill="#000000" font-family="sans-serif" font-size="14" lengthAdjust="spacing" textLength="57.2646" x="439.37" y="102.0234">server.js</text><text fill="#000000" font-family="sans-serif" font-size="14" lengthAdjust="spacing" textLength="79.2559" x="439.37" y="118.5117">(entrypoint)</text></g><!--entity app--><g class="entity" data-qualified-name="src..app" data-source-line="10" id="ent0005"><rect fill="#F1F1F1" height="52.9766" rx="2.5" ry="2.5" style="stroke:#181818;stroke-width:0.5;" width="145.7061" x="342.15" y="220.2283"/><text fill="#000000" font-family="sans-serif" font-size="14" lengthAdjust="spacing" textLength="68.749" x="352.15" y="243.7634">createApp</text><text fill="#000000" font-family="sans-serif" font-size="14" lengthAdjust="spacing" textLength="125.7061" x="352.15" y="260.2517">(composition root)</text></g><!--entity auth router\n/register, /login--><g class="entity" data-qualified-name="src..routes.auth router.n.register. .login" data-source-line="12" id="ent0007"><rect fill="#F1F1F1" height="52.9766" rx="2.5" ry="2.5" style="stroke:#181818;stroke-width:0.5;" width="129.8604" x="46.07" y="371.1983"/><text fill="#000000" font-family="sans-serif" font-size="14" lengthAdjust="spacing" textLength="76.5557" x="56.07" y="394.7334">auth router</text><text fill="#000000" font-family="sans-serif" font-size="14" lengthAdjust="spacing" textLength="109.8604" x="56.07" y="411.2217">/register, /login</text></g><!--entity me router\n/me--><g class="entity" data-qualified-name="src..routes.me router.n.me" data-source-line="13" id="ent0008"><rect fill="#F1F1F1" height="52.9766" rx="2.5" ry="2.5" style="stroke:#181818;stroke-width:0.5;" width="87.0811" x="210.46" y="371.1983"/><text fill="#000000" font-family="sans-serif" font-size="14" lengthAdjust="spacing" textLength="67.0811" x="220.46" y="394.7334">me router</text><text fill="#000000" font-family="sans-serif" font-size="14" lengthAdjust="spacing" textLength="28.2119" x="220.46" y="411.2217">/me</text></g><!--entity auth--><g class="entity" data-qualified-name="src..middleware.auth" data-source-line="16" id="ent0010"><rect fill="#F1F1F1" height="52.9766" rx="2.5" ry="2.5" style="stroke:#181818;stroke-width:0.5;" width="196.1348" x="353.93" y="371.1983"/><text fill="#000000" font-family="sans-serif" font-size="14" lengthAdjust="spacing" textLength="80.876" x="363.93" y="394.7334">requireAuth</text><text fill="#000000" font-family="sans-serif" font-size="14" lengthAdjust="spacing" textLength="176.1348" x="363.93" y="411.2217">(Bearer + verify + lookup)</text></g><!--entity store--><g class="entity" data-qualified-name="src..services.store" data-source-line="19" id="ent0012"><rect fill="#F1F1F1" height="52.9766" rx="2.5" ry="2.5" style="stroke:#181818;stroke-width:0.5;" width="214.4141" x="45.79" y="531.3083"/><text fill="#000000" font-family="sans-serif" font-size="14" lengthAdjust="spacing" textLength="65.2695" x="55.79" y="554.8434">UserStore</text><text fill="#000000" font-family="sans-serif" font-size="14" lengthAdjust="spacing" textLength="194.4141" x="55.79" y="571.3317">(in-memory, bcrypt-hashed)</text></g><!--entity jwts--><g class="entity" data-qualified-name="src..services.jwts" data-source-line="20" id="ent0013"><rect fill="#F1F1F1" height="52.9766" rx="2.5" ry="2.5" style="stroke:#181818;stroke-width:0.5;" width="114.9785" x="295.51" y="531.3083"/><text fill="#000000" font-family="sans-serif" font-size="14" lengthAdjust="spacing" textLength="67.71" x="305.51" y="554.8434">JwtService</text><text fill="#000000" font-family="sans-serif" font-size="14" lengthAdjust="spacing" textLength="94.9785" x="305.51" y="571.3317">(sign + verify)</text></g><!--entity cfg--><g class="entity" data-qualified-name="src..services.cfg" data-source-line="21" id="ent0014"><rect fill="#F1F1F1" height="52.9766" rx="2.5" ry="2.5" style="stroke:#181818;stroke-width:0.5;" width="152.2686" x="445.87" y="531.3083"/><text fill="#000000" font-family="sans-serif" font-size="14" lengthAdjust="spacing" textLength="74.0879" x="455.87" y="554.8434">loadConfig</text><text fill="#000000" font-family="sans-serif" font-size="14" lengthAdjust="spacing" textLength="132.2686" x="455.87" y="571.3317">(zod-validated env)</text></g><!--entity Client--><g class="entity" data-qualified-name="Client" data-source-line="6" id="ent0002"><ellipse cx="674.0024" cy="75.2383" fill="#F1F1F1" rx="8" ry="8" style="stroke:#181818;stroke-width:0.5;"/><path d="M674.0024,83.2383 L674.0024,110.2383 M661.0024,91.2383 L687.0024,91.2383 M674.0024,110.2383 L661.0024,125.2383 M674.0024,110.2383 L687.0024,125.2383" fill="none" style="stroke:#181818;stroke-width:0.5;"/><text fill="#000000" font-family="sans-serif" font-size="14" lengthAdjust="spacing" textLength="39.5049" x="654.25" y="140.2734">Client</text></g><g class="entity" data-qualified-name="GMN23" data-source-line="35" id="ent0024"><path d="M8.13,671.2883 L8.13,742.5305 A0,0 0 0 0 8.13,742.5305 L297.8771,742.5305 A0,0 0 0 0 297.8771,742.5305 L297.8771,681.2883 L287.8771,671.2883 L157,671.2883 L153,584.7583 L149,671.2883 L8.13,671.2883 A0,0 0 0 0 8.13,671.2883" fill="#FEFFDD" style="stroke:#181818;stroke-width:0.5;"/><path d="M287.8771,671.2883 L287.8771,681.2883 L297.8771,681.2883 L287.8771,671.2883" fill="#FEFFDD" style="stroke:#181818;stroke-width:0.5;"/><text fill="#000000" font-family="sans-serif" font-size="13" lengthAdjust="spacing" textLength="260.6094" x="14.13" y="688.8566">bcrypt.hash on add (rounds from config).</text><text fill="#000000" font-family="sans-serif" font-size="13" lengthAdjust="spacing" textLength="250.0786" x="14.13" y="704.1672">verifyPassword runs even when name is</text><text fill="#000000" font-family="sans-serif" font-size="13" lengthAdjust="spacing" textLength="209.7964" x="14.13" y="719.4777">missing &#8212; uniform timing avoids</text><text fill="#000000" font-family="sans-serif" font-size="13" lengthAdjust="spacing" textLength="268.7471" x="14.13" y="734.7883">username-enumeration via response time.</text></g><g class="entity" data-qualified-name="GMN26" data-source-line="42" id="ent0027"><path d="M654.42,362.0683 L654.42,393.6883 L550.43,397.6883 L654.42,401.6883 L654.42,433.3105 A0,0 0 0 0 654.42,433.3105 L891.5831,433.3105 A0,0 0 0 0 891.5831,433.3105 L891.5831,372.0683 L881.5831,362.0683 L654.42,362.0683 A0,0 0 0 0 654.42,362.0683" fill="#FEFFDD" style="stroke:#181818;stroke-width:0.5;"/><path d="M881.5831,362.0683 L881.5831,372.0683 L891.5831,372.0683 L881.5831,362.0683" fill="#FEFFDD" style="stroke:#181818;stroke-width:0.5;"/><text fill="#000000" font-family="sans-serif" font-size="13" lengthAdjust="spacing" textLength="216.1631" x="660.42" y="379.6366">Returns 401 with distinct reasons:</text><text fill="#000000" font-family="sans-serif" font-size="13" lengthAdjust="spacing" textLength="108.0625" x="664.5333" y="394.9472">- missing header</text><text fill="#000000" font-family="sans-serif" font-size="13" lengthAdjust="spacing" textLength="155.8794" x="664.5333" y="410.2577">- token expired / invalid</text><text fill="#000000" font-family="sans-serif" font-size="13" lengthAdjust="spacing" textLength="144.8535" x="664.5333" y="425.5683">- user no longer exists</text></g><!--link Client to app--><g class="link" data-entity-1="ent0002" data-entity-2="ent0005" data-link-type="dependency" data-source-line="25" id="lnk15"><path d="M653.83,129.3583 C648.95,134.2883 643.53,139.2083 638,143.2283 C592.17,176.5583 539.3649,200.7511 493.8249,218.3911" fill="none" id="Client-to-app" style="stroke:#181818;stroke-width:1;"/><polygon fill="#181818" points="488.23,220.5583,498.0672,221.0374,492.8924,218.7523,495.1776,213.5775,488.23,220.5583" style="stroke:#181818;stroke-width:1;"/><text fill="#000000" font-family="sans-serif" font-size="13" lengthAdjust="spacing" textLength="33.1792" x="587.9" y="186.7966">HTTP</text></g><!--link app to auth--><g class="link" data-entity-1="ent0005" data-entity-2="ent0010" data-link-type="dependency" data-source-line="26" id="lnk16"><path d="M393.53,273.6683 C384.83,287.3983 378.07,304.5883 384,320.1983 C391.39,339.6283 401.9105,353.1139 415.8405,366.5439" fill="none" id="app-to-auth" style="stroke:#181818;stroke-width:1;"/><polygon fill="#181818" points="420.16,370.7083,416.4571,361.582,416.5605,367.2379,410.9045,367.3413,420.16,370.7083" style="stroke:#181818;stroke-width:1;"/><text fill="#000000" font-family="sans-serif" font-size="13" lengthAdjust="spacing" textLength="114.6895" x="385" y="316.7666">depends (for /me)</text></g><!--link auth router\n/register, /login to store--><g class="link" data-entity-1="ent0007" data-entity-2="ent0012" data-link-type="dependency" data-source-line="27" id="lnk17"><path d="M106.69,424.4983 C104.86,440.7783 104.14,462.0983 109,480.3083 C113.86,498.5183 120.8851,511.8838 130.3251,526.0638" fill="none" id="auth router\n/register, /login-to-store" style="stroke:#181818;stroke-width:1;"/><polygon fill="#181818" points="133.65,531.0583,131.9922,521.3499,130.8792,526.8962,125.3329,525.7832,133.65,531.0583" style="stroke:#181818;stroke-width:1;"/><text fill="#000000" font-family="sans-serif" font-size="13" lengthAdjust="spacing" textLength="132.3296" x="110" y="476.8766">add / verifyPassword</text></g><!--link auth router\n/register, /login to jwts--><g class="link" data-entity-1="ent0007" data-entity-2="ent0013" data-link-type="dependency" data-source-line="28" id="lnk18"><path d="M149.06,424.5783 C162.52,432.9383 178.04,441.7083 193,448.1783 C215.88,458.0683 224.85,451.8883 247,463.3083 C262.73,471.4183 264.57,476.7783 278,488.3083 C294.06,502.0883 307.1406,513.9185 321.1806,526.9385" fill="none" id="auth router\n/register, /login-to-jwts" style="stroke:#181818;stroke-width:1;"/><polygon fill="#181818" points="325.58,531.0183,321.7007,521.9656,321.9138,527.6184,316.261,527.8315,325.58,531.0183" style="stroke:#181818;stroke-width:1;"/><text fill="#000000" font-family="sans-serif" font-size="13" lengthAdjust="spacing" textLength="26.5586" x="269.89" y="476.8766">sign</text></g><!--link auth to jwts--><g class="link" data-entity-1="ent0010" data-entity-2="ent0013" data-link-type="dependency" data-source-line="29" id="lnk19"><path d="M440,424.6583 C432.12,440.9983 421.22,462.3283 410,480.3083 C399.04,497.8683 388.8918,511.7885 377.5818,526.2785" fill="none" id="auth-to-jwts" style="stroke:#181818;stroke-width:1;"/><polygon fill="#181818" points="373.89,531.0083,382.5808,526.3748,376.9665,527.0668,376.2745,521.4524,373.89,531.0083" style="stroke:#181818;stroke-width:1;"/><text fill="#000000" font-family="sans-serif" font-size="13" lengthAdjust="spacing" textLength="34.6201" x="419.95" y="476.8766">verify</text></g><!--link auth to store--><g class="link" data-entity-1="ent0010" data-entity-2="ent0012" data-link-type="dependency" data-source-line="30" id="lnk20"><path d="M411.08,424.5983 C382.25,442.0583 342.28,464.6583 305,480.3083 C293.46,485.1583 289.55,483.4983 278,488.3083 C249.33,500.2483 223.9064,513.9044 200.1564,527.8244" fill="none" id="auth-to-store" style="stroke:#181818;stroke-width:1;"/><polygon fill="#181818" points="194.98,530.8583,204.7672,529.7583,199.2937,528.33,200.722,522.8564,194.98,530.8583" style="stroke:#181818;stroke-width:1;"/><text fill="#000000" font-family="sans-serif" font-size="13" lengthAdjust="spacing" textLength="50.9844" x="339.42" y="476.8766">findById</text></g><!--link server to cfg--><g class="link" data-entity-1="ent0004" data-entity-2="ent0014" data-link-type="dependency" data-source-line="31" id="lnk21"><path d="M507.74,131.9483 C518.86,143.5183 530.64,157.9783 538,173.2283 C591.37,283.8583 589.49,327.6083 566,448.1783 C560.24,477.7383 549.0892,504.0398 538.4692,525.5198" fill="none" id="server-to-cfg" style="stroke:#181818;stroke-width:1;"/><polygon fill="#181818" points="535.81,530.8983,543.3845,524.6033,538.026,526.4162,536.2131,521.0577,535.81,530.8983" style="stroke:#181818;stroke-width:1;"/><text fill="#000000" font-family="sans-serif" font-size="13" lengthAdjust="spacing" textLength="77.251" x="582.55" y="316.7666">loadConfig()</text></g><!--link server to app--><g class="link" data-entity-1="ent0004" data-entity-2="ent0005" data-link-type="dependency" data-source-line="32" id="lnk22"><path d="M443.46,131.8783 C431.07,143.0483 418.61,157.2283 412,173.2283 C405.94,187.8883 405.653,199.7488 407.863,214.0388" fill="none" id="server-to-app" style="stroke:#181818;stroke-width:1;"/><polygon fill="#181818" points="408.78,219.9683,411.3575,210.4627,408.0158,215.027,403.4515,211.6854,408.78,219.9683" style="stroke:#181818;stroke-width:1;"/><text fill="#000000" font-family="sans-serif" font-size="13" lengthAdjust="spacing" textLength="120.104" x="413" y="186.7966">createApp({config})</text></g><?plantuml-src ZLEnRjim4Dtv5OTCDXhPBT0fGm4dIzifQDAfoS289-bYYLH9oeeR1EX7z0lx9NqK7SNfqYw2SFVkyTsxkoYnPReVOr4vNznnBTQo3_Jxvo-wS5tlBDj86rys4hcCWsUbmbPihxtkg7n6NCKzQ3mGsjOj7q52euqRnTPKwJQWMfVHURfe1MLAzRhSwfhf9FXoVKAFYkXROBzZlxeFDtO1aD_tJcnStf8Eb7C9LNhMaJTz3zIa8qWKPyaxTy3glWTmVi6x8NB8Rw1U3x6XAUPlxDgZyu3VKrgt3YRSPb37Bv2EK_3fcB8JOreUjUUPrlFtGJnlm0vXvuoSfpS4qLBjyTCwjntwWq20_gPC3KfvfFCh8bUmZ44djkYuStv_IdSbV8b5eqF3vk1DGkMYpsEyoaIe2bBRMKA6Ok0X8rkdpOMpbTH0_d2csEbM39mrn7QNqMLLJpAVbCfpewBuaEobC_fuVNsfqkyKIfwUaU6UhGcqm4uHV5kgVxazLK_wKQwDeVL1xgKEONJU_1z3QWi4gM4ruO-2cUyb_FnQ9TQSxpyPbLThog5XP5wiMIoFixdnUVyMZ-K4UbegPLrakdCnkevSDKya3skLXaLOqTJW0gqaZohlqXqbWkKAqDTjanzi8DwnfR71nsfifAJHTH92kgfqg8CLEDrHb2w5zCw9IPW1ebD5mNResElfFdQYSQW1TniuLV1AOLYKb1_qUwcRcEGVzlCBu-uXu_tRTpGAx3EmNcmPmQC3UCxIAXMpf8QrcMuKiUYsaCqFFMuYJLNij5yvcVJXOHXjQ_pn0tZ3hEOF?></g></svg>