<?plantuml 1.2026.2?><svg xmlns="http://www.w3.org/2000/svg" xmlns:xlink="http://www.w3.org/1999/xlink" contentStyleType="text/css" data-diagram-type="DESCRIPTION" height="422px" preserveAspectRatio="none" style="width:345px;height:422px;background:#FFFFFF;" version="1.1" viewBox="0 0 345 422" width="345px" zoomAndPan="magnify"><title>Deployment &#8212; single container</title><defs/><g><g class="title" data-source-line="1"><text fill="#000000" font-family="sans-serif" font-size="14" font-weight="bold" lengthAdjust="spacing" textLength="226.1875" x="52.4063" y="23.5352">Deployment &#8212; single container</text></g><!--cluster Docker host--><g class="cluster" data-qualified-name="Docker host" data-source-line="5" id="ent0002"><polygon fill="none" points="16,163.3878,26,153.3878,328,153.3878,328,317.8778,318,327.8778,16,327.8778,16,163.3878" style="stroke:#181818;stroke-width:1;"/><line style="stroke:#181818;stroke-width:1;" x1="318" x2="328" y1="163.3878" y2="153.3878"/><line style="stroke:#181818;stroke-width:1;" x1="16" x2="318" y1="163.3878" y2="163.3878"/><line style="stroke:#181818;stroke-width:1;" x1="318" x2="318" y1="163.3878" y2="327.8778"/><text fill="#000000" font-family="sans-serif" font-size="14" font-weight="bold" lengthAdjust="spacing" textLength="87.2607" x="124.3696" y="179.923">Docker host</text></g><!--cluster api :3000--><g class="cluster" data-qualified-name="Docker host.api .3000" data-source-line="6" id="ent0003"><polygon fill="none" points="40,211.3878,50,201.3878,304,201.3878,304,293.8778,294,303.8778,40,303.8778,40,211.3878" style="stroke:#181818;stroke-width:1;"/><line style="stroke:#181818;stroke-width:1;" x1="294" x2="304" y1="211.3878" y2="201.3878"/><line style="stroke:#181818;stroke-width:1;" x1="40" x2="294" y1="211.3878" y2="211.3878"/><line style="stroke:#181818;stroke-width:1;" x1="294" x2="294" y1="211.3878" y2="303.8778"/><text fill="#000000" font-family="sans-serif" font-size="14" font-weight="bold" lengthAdjust="spacing" textLength="67.0742" x="134.4629" y="227.923">api :3000</text></g><!--entity node 20 + Express + bcrypt--><g class="entity" data-qualified-name="Docker host.api .3000.node 20 . Express . bcrypt" data-source-line="7" id="ent0004"><rect fill="#F1F1F1" height="46.4883" rx="2.5" ry="2.5" style="stroke:#181818;stroke-width:0.5;" width="231.8711" x="56.06" y="241.3878"/><rect fill="#F1F1F1" height="10" style="stroke:#181818;stroke-width:0.5;" width="15" x="267.9311" y="246.3878"/><rect fill="#F1F1F1" height="2" style="stroke:#181818;stroke-width:0.5;" width="4" x="265.9311" y="248.3878"/><rect fill="#F1F1F1" height="2" style="stroke:#181818;stroke-width:0.5;" width="4" x="265.9311" y="252.3878"/><text fill="#000000" font-family="sans-serif" font-size="14" lengthAdjust="spacing" textLength="191.8711" x="71.06" y="274.923">node 20 + Express + bcrypt</text></g><!--entity clients--><g class="entity" data-qualified-name="clients" data-source-line="11" id="ent0005"><path d="M143.5589,51.9376 C147.6111,45.1722 152.7069,44.0464 157.6429,51.0325 C162.461,43.9619 168.4969,43.8428 173.9241,50.2993 C180.0749,43.4883 184.8119,43.812 189.1614,52.1152 C193.3458,45.0611 198.6269,45.2195 202.334,52.5523 C210.3733,55.8607 211.4484,61.3062 206.225,67.9633 C212.4495,74.0429 212.6925,81.7396 202.7131,84.3456 C198.437,90.8717 192.993,90.4228 188.4305,84.679 C185.5432,91.7914 179.5666,94.0963 173.9687,87.5486 C168.6787,94.1385 161.9299,93.2134 158.9108,85.2061 C153.0241,93.302 145.4132,91.2452 141.821,82.831 C133.2945,80.8462 129.0714,75.3643 135.5786,67.3266 C130.2437,58.1757 133.9515,53.3399 143.5589,51.9376" fill="#F1F1F1" style="stroke:#181818;stroke-width:0.5;"/><text fill="#000000" font-family="sans-serif" font-size="14" lengthAdjust="spacing" textLength="46.6416" x="148.68" y="72.433">Clients</text></g><g class="entity" data-qualified-name="GMN7" data-source-line="15" id="ent0008"><path d="M23.85,374.8778 L23.85,415.4989 A0,0 0 0 0 23.85,415.4989 L320.1542,415.4989 A0,0 0 0 0 320.1542,415.4989 L320.1542,384.8778 L310.1542,374.8778 L176,374.8778 L172,288.3178 L168,374.8778 L23.85,374.8778 A0,0 0 0 0 23.85,374.8778" fill="#FEFFDD" style="stroke:#181818;stroke-width:0.5;"/><path d="M310.1542,374.8778 L310.1542,384.8778 L320.1542,384.8778 L310.1542,374.8778" fill="#FEFFDD" style="stroke:#181818;stroke-width:0.5;"/><text fill="#000000" font-family="sans-serif" font-size="13" lengthAdjust="spacing" textLength="275.3042" x="29.85" y="392.4462">Env vars: JWT_SECRET (required &#8805;16 chars),</text><text fill="#000000" font-family="sans-serif" font-size="13" lengthAdjust="spacing" textLength="260.7744" x="29.85" y="407.7567">JWT_EXPIRES_IN, BCRYPT_ROUNDS, PORT.</text></g><!--link clients to node 20 + Express + bcrypt--><g class="link" data-entity-1="ent0005" data-entity-2="ent0004" data-link-type="dependency" data-source-line="12" id="lnk6"><path d="M172,90.5678 C172,128.1778 172,197.5378 172,235.1678" fill="none" id="clients-to-node 20 + Express + bcrypt" style="stroke:#181818;stroke-width:1;"/><polygon fill="#181818" points="172,241.1678,176,232.1678,172,236.1678,168,232.1678,172,241.1678" style="stroke:#181818;stroke-width:1;"/><text fill="#000000" font-family="sans-serif" font-size="13" lengthAdjust="spacing" textLength="40.1807" x="173" y="133.9562">HTTPS</text></g><?plantuml-src XOwnJiCm54LtVyLL9X0f2Y0nP60WiKGPsYWn0eHGv2OkiPhOmNOB5Qh4oiuly6Fz4Xp23DExEZgwxphfMe5KzAtUTa8vxDy_OQLwyhJIod6fX274hgJgkU4TRCDh_U85B7bh1I5Arm91ggkLC6YqTG7U231Ytal4Pr4KZH1u-E6d4Ov0NtiZhFLfKPbjxnwzi2CxGgfMhsi4IIlz81k0MrHZ9hyNayd5drM8SSLOLWppdC12EwSxwEL__wdQOCEDZN5zoyg29ZbbE33YUIsDgB7_-3evHzLuup3q-Y3HksoQqwASpa9S9lbznifyVZDBYn3PF6V7HAWQmufl?></g></svg>