<?plantuml 1.2026.2?><svg xmlns="http://www.w3.org/2000/svg" xmlns:xlink="http://www.w3.org/1999/xlink" contentStyleType="text/css" data-diagram-type="SEQUENCE" height="1018px" preserveAspectRatio="none" style="width:945px;height:1018px;background:#FFFFFF;" version="1.1" viewBox="0 0 945 1018" width="945px" zoomAndPan="magnify"><title>Sequence &#8212; POST /auth/login + GET /me</title><defs/><g><text fill="#000000" font-family="sans-serif" font-size="14" font-weight="bold" lengthAdjust="spacing" textLength="301.1162" x="318.1162" y="28.5352">Sequence &#8212; POST /auth/login + GET /me</text><rect fill="none" height="342.3262" style="stroke:#000000;stroke-width:1.5;" width="672.9126" x="10" y="207.5977"/><rect fill="none" height="237.4395" style="stroke:#000000;stroke-width:1.5;" width="652.9126" x="20" y="305.4844"/><rect fill="none" height="225.084" style="stroke:#000000;stroke-width:1.5;" width="918.3486" x="10" y="695.166"/><rect fill="none" height="120.1973" style="stroke:#000000;stroke-width:1.5;" width="898.3486" x="20" y="793.0527"/><g class="participant-lifeline" data-entity-uid="part1" data-qualified-name="Client" id="part1-lifeline"><g><title>Client</title><rect fill="#000000" fill-opacity="0.00000" height="818.2734" width="8" x="48.7524" y="118.9766"/><line style="stroke:#181818;stroke-width:0.5;stroke-dasharray:5,5;" x1="52" x2="52" y1="118.9766" y2="937.25"/></g></g><g class="participant-lifeline" data-entity-uid="part2" data-qualified-name="Auth" id="part2-lifeline"><g><title>auth router</title><rect fill="#000000" fill-opacity="0.00000" height="818.2734" width="8" x="298.3989" y="118.9766"/><line style="stroke:#181818;stroke-width:0.5;stroke-dasharray:5,5;" x1="302.1211" x2="302.1211" y1="118.9766" y2="937.25"/></g></g><g class="participant-lifeline" data-entity-uid="part3" data-qualified-name="Store" id="part3-lifeline"><g><title>UserStore</title><rect fill="#000000" fill-opacity="0.00000" height="818.2734" width="8" x="527.5679" y="118.9766"/><line style="stroke:#181818;stroke-width:0.5;stroke-dasharray:5,5;" x1="530.9331" x2="530.9331" y1="118.9766" y2="937.25"/></g></g><g class="participant-lifeline" data-entity-uid="part4" data-qualified-name="Jwt" id="part4-lifeline"><g><title>JwtService</title><rect fill="#000000" fill-opacity="0.00000" height="818.2734" width="8" x="618.0576" y="118.9766"/><line style="stroke:#181818;stroke-width:0.5;stroke-dasharray:5,5;" x1="621.2026" x2="621.2026" y1="118.9766" y2="937.25"/></g></g><g class="participant-lifeline" data-entity-uid="part5" data-qualified-name="Me" id="part5-lifeline"><g><title>.me router</title><rect fill="#000000" fill-opacity="0.00000" height="818.2734" width="8" x="713.124" y="118.9766"/><line style="stroke:#181818;stroke-width:0.5;stroke-dasharray:5,5;" x1="716.9126" x2="716.9126" y1="118.9766" y2="937.25"/></g></g><g class="participant-lifeline" data-entity-uid="part6" data-qualified-name="RA" id="part6-lifeline"><g><title>requireAuth</title><rect fill="#000000" fill-opacity="0.00000" height="818.2734" width="8" x="856.9106" y="118.9766"/><line style="stroke:#181818;stroke-width:0.5;stroke-dasharray:5,5;" x1="860.4727" x2="860.4727" y1="118.9766" y2="937.25"/></g></g><g class="participant participant-head" data-entity-uid="part1" data-qualified-name="Client" id="part1-head"><text fill="#000000" font-family="sans-serif" font-size="14" lengthAdjust="spacing" textLength="39.5049" x="30" y="116.0234">Client</text><ellipse cx="52.7524" cy="50.9883" fill="#E2E2F0" rx="8" ry="8" style="stroke:#181818;stroke-width:0.5;"/><path d="M52.7524,58.9883 L52.7524,85.9883 M39.7524,66.9883 L65.7524,66.9883 M52.7524,85.9883 L39.7524,100.9883 M52.7524,85.9883 L65.7524,100.9883" fill="none" style="stroke:#181818;stroke-width:0.5;"/></g><g class="participant participant-tail" data-entity-uid="part1" data-qualified-name="Client" id="part1-tail"><text fill="#000000" font-family="sans-serif" font-size="14" lengthAdjust="spacing" textLength="39.5049" x="30" y="949.7852">Client</text><ellipse cx="52.7524" cy="961.2383" fill="#E2E2F0" rx="8" ry="8" style="stroke:#181818;stroke-width:0.5;"/><path d="M52.7524,969.2383 L52.7524,996.2383 M39.7524,977.2383 L65.7524,977.2383 M52.7524,996.2383 L39.7524,1011.2383 M52.7524,996.2383 L65.7524,1011.2383" fill="none" style="stroke:#181818;stroke-width:0.5;"/></g><g class="participant participant-head" data-entity-uid="part2" data-qualified-name="Auth" id="part2-head"><rect fill="#E2E2F0" height="30.4883" rx="2.5" ry="2.5" style="stroke:#181818;stroke-width:0.5;" width="90.5557" x="257.1211" y="87.4883"/><text fill="#000000" font-family="sans-serif" font-size="14" lengthAdjust="spacing" textLength="76.5557" x="264.1211" y="108.0234">auth router</text></g><g class="participant participant-tail" data-entity-uid="part2" data-qualified-name="Auth" id="part2-tail"><rect fill="#E2E2F0" height="30.4883" rx="2.5" ry="2.5" style="stroke:#181818;stroke-width:0.5;" width="90.5557" x="257.1211" y="936.25"/><text fill="#000000" font-family="sans-serif" font-size="14" lengthAdjust="spacing" textLength="76.5557" x="264.1211" y="956.7852">auth router</text></g><g class="participant participant-head" data-entity-uid="part3" data-qualified-name="Store" id="part3-head"><rect fill="#E2E2F0" height="30.4883" rx="2.5" ry="2.5" style="stroke:#181818;stroke-width:0.5;" width="79.2695" x="491.9331" y="87.4883"/><text fill="#000000" font-family="sans-serif" font-size="14" lengthAdjust="spacing" textLength="65.2695" x="498.9331" y="108.0234">UserStore</text></g><g class="participant participant-tail" data-entity-uid="part3" data-qualified-name="Store" id="part3-tail"><rect fill="#E2E2F0" height="30.4883" rx="2.5" ry="2.5" style="stroke:#181818;stroke-width:0.5;" width="79.2695" x="491.9331" y="936.25"/><text fill="#000000" font-family="sans-serif" font-size="14" lengthAdjust="spacing" textLength="65.2695" x="498.9331" y="956.7852">UserStore</text></g><g class="participant participant-head" data-entity-uid="part4" data-qualified-name="Jwt" id="part4-head"><rect fill="#E2E2F0" height="30.4883" rx="2.5" ry="2.5" style="stroke:#181818;stroke-width:0.5;" width="81.71" x="581.2026" y="87.4883"/><text fill="#000000" font-family="sans-serif" font-size="14" lengthAdjust="spacing" textLength="67.71" x="588.2026" y="108.0234">JwtService</text></g><g class="participant participant-tail" data-entity-uid="part4" data-qualified-name="Jwt" id="part4-tail"><rect fill="#E2E2F0" height="30.4883" rx="2.5" ry="2.5" style="stroke:#181818;stroke-width:0.5;" width="81.71" x="581.2026" y="936.25"/><text fill="#000000" font-family="sans-serif" font-size="14" lengthAdjust="spacing" textLength="67.71" x="588.2026" y="956.7852">JwtService</text></g><g class="participant participant-head" data-entity-uid="part5" data-qualified-name="Me" id="part5-head"><rect fill="#E2E2F0" height="30.4883" rx="2.5" ry="2.5" style="stroke:#181818;stroke-width:0.5;" width="88.4229" x="672.9126" y="87.4883"/><text fill="#000000" font-family="sans-serif" font-size="14" lengthAdjust="spacing" textLength="74.4229" x="679.9126" y="108.0234">/me router</text></g><g class="participant participant-tail" data-entity-uid="part5" data-qualified-name="Me" id="part5-tail"><rect fill="#E2E2F0" height="30.4883" rx="2.5" ry="2.5" style="stroke:#181818;stroke-width:0.5;" width="88.4229" x="672.9126" y="936.25"/><text fill="#000000" font-family="sans-serif" font-size="14" lengthAdjust="spacing" textLength="74.4229" x="679.9126" y="956.7852">/me router</text></g><g class="participant participant-head" data-entity-uid="part6" data-qualified-name="RA" id="part6-head"><rect fill="#E2E2F0" height="30.4883" rx="2.5" ry="2.5" style="stroke:#181818;stroke-width:0.5;" width="94.876" x="813.4727" y="87.4883"/><text fill="#000000" font-family="sans-serif" font-size="14" lengthAdjust="spacing" textLength="80.876" x="820.4727" y="108.0234">requireAuth</text></g><g class="participant participant-tail" data-entity-uid="part6" data-qualified-name="RA" id="part6-tail"><rect fill="#E2E2F0" height="30.4883" rx="2.5" ry="2.5" style="stroke:#181818;stroke-width:0.5;" width="94.876" x="813.4727" y="936.25"/><text fill="#000000" font-family="sans-serif" font-size="14" lengthAdjust="spacing" textLength="80.876" x="820.4727" y="956.7852">requireAuth</text></g><g class="message" data-entity-1="part1" data-entity-2="part2" id="msg1"><polygon fill="#181818" points="290.3989,146.2871,300.3989,150.2871,290.3989,154.2871,294.3989,150.2871" style="stroke:#181818;stroke-width:1;"/><line style="stroke:#181818;stroke-width:1;" x1="52.7524" x2="296.3989" y1="150.2871" y2="150.2871"/><text fill="#000000" font-family="sans-serif" font-size="13" lengthAdjust="spacing" textLength="225.6465" x="59.7524" y="145.5449">POST /auth/login {name, password}</text></g><g class="message" data-entity-1="part2" data-entity-2="part2" id="msg2"><line style="stroke:#181818;stroke-width:1;" x1="302.3989" x2="344.3989" y1="179.5977" y2="179.5977"/><line style="stroke:#181818;stroke-width:1;" x1="344.3989" x2="344.3989" y1="179.5977" y2="192.5977"/><line style="stroke:#181818;stroke-width:1;" x1="303.3989" x2="344.3989" y1="192.5977" y2="192.5977"/><polygon fill="#181818" points="313.3989,188.5977,303.3989,192.5977,313.3989,196.5977,309.3989,192.5977" style="stroke:#181818;stroke-width:1;"/><text fill="#000000" font-family="sans-serif" font-size="13" lengthAdjust="spacing" textLength="135.2939" x="309.3989" y="174.8555">zod parse credentials</text></g><path d="M10,207.5977 L72.1387,207.5977 L72.1387,214.9082 L62.1387,224.9082 L10,224.9082 L10,207.5977" fill="#EEEEEE" style="stroke:#000000;stroke-width:1.5;"/><rect fill="none" height="342.3262" style="stroke:#000000;stroke-width:1.5;" width="672.9126" x="10" y="207.5977"/><text fill="#000000" font-family="sans-serif" font-size="13" font-weight="bold" lengthAdjust="spacing" textLength="17.1387" x="25" y="221.166">alt</text><text fill="#000000" font-family="sans-serif" font-size="11" font-weight="bold" lengthAdjust="spacing" textLength="78.0313" x="87.1387" y="220.2324">[invalid body]</text><g class="message" data-entity-1="part2" data-entity-2="part1" id="msg3"><polygon fill="#181818" points="63.7524,242.2188,53.7524,246.2188,63.7524,250.2188,59.7524,246.2188" style="stroke:#181818;stroke-width:1;"/><line style="stroke:#181818;stroke-width:1;stroke-dasharray:2,2;" x1="57.7524" x2="301.3989" y1="246.2188" y2="246.2188"/><text fill="#000000" font-family="sans-serif" font-size="13" lengthAdjust="spacing" textLength="129.2446" x="69.7524" y="241.4766">400 validation failed</text></g><line style="stroke:#000000;stroke-width:1;stroke-dasharray:2,2;" x1="10" x2="682.9126" y1="255.2188" y2="255.2188"/><text fill="#000000" font-family="sans-serif" font-size="11" font-weight="bold" lengthAdjust="spacing" textLength="35.5889" x="15" y="265.8535">[valid]</text><g class="message" data-entity-1="part2" data-entity-2="part3" id="msg4"><polygon fill="#181818" points="519.5679,286.4844,529.5679,290.4844,519.5679,294.4844,523.5679,290.4844" style="stroke:#181818;stroke-width:1;"/><line style="stroke:#181818;stroke-width:1;" x1="302.3989" x2="525.5679" y1="290.4844" y2="290.4844"/><text fill="#000000" font-family="sans-serif" font-size="13" lengthAdjust="spacing" textLength="205.1689" x="309.3989" y="285.7422">verifyPassword(name, password)</text></g><path d="M20,305.4844 L82.1387,305.4844 L82.1387,312.7949 L72.1387,322.7949 L20,322.7949 L20,305.4844" fill="#EEEEEE" style="stroke:#000000;stroke-width:1.5;"/><rect fill="none" height="237.4395" style="stroke:#000000;stroke-width:1.5;" width="652.9126" x="20" y="305.4844"/><text fill="#000000" font-family="sans-serif" font-size="13" font-weight="bold" lengthAdjust="spacing" textLength="17.1387" x="35" y="319.0527">alt</text><text fill="#000000" font-family="sans-serif" font-size="11" font-weight="bold" lengthAdjust="spacing" textLength="78.5845" x="97.1387" y="318.1191">[wrong creds]</text><g class="message" data-entity-1="part3" data-entity-2="part2" id="msg5"><polygon fill="#181818" points="313.3989,340.1055,303.3989,344.1055,313.3989,348.1055,309.3989,344.1055" style="stroke:#181818;stroke-width:1;"/><line style="stroke:#181818;stroke-width:1;stroke-dasharray:2,2;" x1="307.3989" x2="530.5679" y1="344.1055" y2="344.1055"/><text fill="#000000" font-family="sans-serif" font-size="13" lengthAdjust="spacing" textLength="29.5864" x="319.3989" y="339.3633">false</text></g><g class="message" data-entity-1="part2" data-entity-2="part1" id="msg6"><polygon fill="#181818" points="63.7524,369.416,53.7524,373.416,63.7524,377.416,59.7524,373.416" style="stroke:#181818;stroke-width:1;"/><line style="stroke:#181818;stroke-width:1;stroke-dasharray:2,2;" x1="57.7524" x2="301.3989" y1="373.416" y2="373.416"/><text fill="#000000" font-family="sans-serif" font-size="13" lengthAdjust="spacing" textLength="143.2158" x="69.7524" y="368.6738">401 invalid credentials</text></g><line style="stroke:#000000;stroke-width:1;stroke-dasharray:2,2;" x1="20" x2="672.9126" y1="382.416" y2="382.416"/><text fill="#000000" font-family="sans-serif" font-size="11" font-weight="bold" lengthAdjust="spacing" textLength="47.792" x="25" y="393.0508">[correct]</text><g class="message" data-entity-1="part3" data-entity-2="part2" id="msg7"><polygon fill="#181818" points="313.3989,413.6816,303.3989,417.6816,313.3989,421.6816,309.3989,417.6816" style="stroke:#181818;stroke-width:1;"/><line style="stroke:#181818;stroke-width:1;stroke-dasharray:2,2;" x1="307.3989" x2="530.5679" y1="417.6816" y2="417.6816"/><text fill="#000000" font-family="sans-serif" font-size="13" lengthAdjust="spacing" textLength="25.4922" x="319.3989" y="412.9395">true</text></g><g class="message" data-entity-1="part2" data-entity-2="part3" id="msg8"><polygon fill="#181818" points="519.5679,442.9922,529.5679,446.9922,519.5679,450.9922,523.5679,446.9922" style="stroke:#181818;stroke-width:1;"/><line style="stroke:#181818;stroke-width:1;" x1="302.3989" x2="525.5679" y1="446.9922" y2="446.9922"/><text fill="#000000" font-family="sans-serif" font-size="13" lengthAdjust="spacing" textLength="118.3013" x="309.3989" y="442.25">findByName(name)</text></g><g class="message" data-entity-1="part2" data-entity-2="part4" id="msg9"><polygon fill="#181818" points="610.0576,472.3027,620.0576,476.3027,610.0576,480.3027,614.0576,476.3027" style="stroke:#181818;stroke-width:1;"/><line style="stroke:#181818;stroke-width:1;" x1="302.3989" x2="616.0576" y1="476.3027" y2="476.3027"/><text fill="#000000" font-family="sans-serif" font-size="13" lengthAdjust="spacing" textLength="98.2617" x="309.3989" y="471.5605">sign({id, name})</text></g><g class="message" data-entity-1="part4" data-entity-2="part2" id="msg10"><polygon fill="#181818" points="313.3989,501.6133,303.3989,505.6133,313.3989,509.6133,309.3989,505.6133" style="stroke:#181818;stroke-width:1;"/><line style="stroke:#181818;stroke-width:1;stroke-dasharray:2,2;" x1="307.3989" x2="621.0576" y1="505.6133" y2="505.6133"/><text fill="#000000" font-family="sans-serif" font-size="13" lengthAdjust="spacing" textLength="35.7563" x="319.3989" y="500.8711">token</text></g><g class="message" data-entity-1="part2" data-entity-2="part1" id="msg11"><polygon fill="#181818" points="63.7524,530.9238,53.7524,534.9238,63.7524,538.9238,59.7524,534.9238" style="stroke:#181818;stroke-width:1;"/><line style="stroke:#181818;stroke-width:1;stroke-dasharray:2,2;" x1="57.7524" x2="301.3989" y1="534.9238" y2="534.9238"/><text fill="#000000" font-family="sans-serif" font-size="13" lengthAdjust="spacing" textLength="72.9854" x="69.7524" y="530.1816">200 {token}</text></g><rect fill="#EEEEEE" height="3" style="stroke:#EEEEEE;stroke-width:1;" width="938.3486" x="0" y="577.5791"/><line style="stroke:#000000;stroke-width:1;" x1="0" x2="938.3486" y1="577.5791" y2="577.5791"/><line style="stroke:#000000;stroke-width:1;" x1="0" x2="938.3486" y1="580.5791" y2="580.5791"/><rect fill="#EEEEEE" height="23.3105" style="stroke:#000000;stroke-width:2;" width="48.9502" x="444.6992" y="566.9238"/><text fill="#000000" font-family="sans-serif" font-size="13" font-weight="bold" lengthAdjust="spacing" textLength="30.6655" x="450.6992" y="583.4922">later</text><g class="message" data-entity-1="part1" data-entity-2="part5" id="msg12"><polygon fill="#181818" points="705.124,617.5449,715.124,621.5449,705.124,625.5449,709.124,621.5449" style="stroke:#181818;stroke-width:1;"/><line style="stroke:#181818;stroke-width:1;" x1="52.7524" x2="711.124" y1="621.5449" y2="621.5449"/><text fill="#000000" font-family="sans-serif" font-size="13" lengthAdjust="spacing" textLength="284.7813" x="59.7524" y="616.8027">GET /me with Authorization: Bearer &lt;token&gt;</text></g><g class="message" data-entity-1="part5" data-entity-2="part6" id="msg13"><polygon fill="#181818" points="848.9106,646.8555,858.9106,650.8555,848.9106,654.8555,852.9106,650.8555" style="stroke:#181818;stroke-width:1;"/><line style="stroke:#181818;stroke-width:1;" x1="717.124" x2="854.9106" y1="650.8555" y2="650.8555"/><text fill="#000000" font-family="sans-serif" font-size="13" lengthAdjust="spacing" textLength="73.0171" x="724.124" y="646.1133">middleware</text></g><g class="message" data-entity-1="part6" data-entity-2="part4" id="msg14"><polygon fill="#181818" points="633.0576,676.166,623.0576,680.166,633.0576,684.166,629.0576,680.166" style="stroke:#181818;stroke-width:1;"/><line style="stroke:#181818;stroke-width:1;" x1="627.0576" x2="859.9106" y1="680.166" y2="680.166"/><text fill="#000000" font-family="sans-serif" font-size="13" lengthAdjust="spacing" textLength="78.8315" x="639.0576" y="675.4238">verify(token)</text></g><path d="M10,695.166 L72.1387,695.166 L72.1387,702.4766 L62.1387,712.4766 L10,712.4766 L10,695.166" fill="#EEEEEE" style="stroke:#000000;stroke-width:1.5;"/><rect fill="none" height="225.084" style="stroke:#000000;stroke-width:1.5;" width="918.3486" x="10" y="695.166"/><text fill="#000000" font-family="sans-serif" font-size="13" font-weight="bold" lengthAdjust="spacing" textLength="17.1387" x="25" y="708.7344">alt</text><text fill="#000000" font-family="sans-serif" font-size="11" font-weight="bold" lengthAdjust="spacing" textLength="102.4053" x="87.1387" y="707.8008">[invalid / expired]</text><g class="message" data-entity-1="part6" data-entity-2="part1" id="msg15"><polygon fill="#181818" points="63.7524,729.7871,53.7524,733.7871,63.7524,737.7871,59.7524,733.7871" style="stroke:#181818;stroke-width:1;"/><line style="stroke:#181818;stroke-width:1;stroke-dasharray:2,2;" x1="57.7524" x2="859.9106" y1="733.7871" y2="733.7871"/><text fill="#000000" font-family="sans-serif" font-size="13" lengthAdjust="spacing" textLength="24.6606" x="69.7524" y="729.0449">401</text></g><line style="stroke:#000000;stroke-width:1;stroke-dasharray:2,2;" x1="10" x2="928.3486" y1="742.7871" y2="742.7871"/><text fill="#000000" font-family="sans-serif" font-size="11" font-weight="bold" lengthAdjust="spacing" textLength="35.5889" x="15" y="753.4219">[valid]</text><g class="message" data-entity-1="part6" data-entity-2="part3" id="msg16"><polygon fill="#181818" points="542.5679,774.0527,532.5679,778.0527,542.5679,782.0527,538.5679,778.0527" style="stroke:#181818;stroke-width:1;"/><line style="stroke:#181818;stroke-width:1;" x1="536.5679" x2="859.9106" y1="778.0527" y2="778.0527"/><text fill="#000000" font-family="sans-serif" font-size="13" lengthAdjust="spacing" textLength="124.7505" x="548.5679" y="773.3105">findById(payload.id)</text></g><path d="M20,793.0527 L82.1387,793.0527 L82.1387,800.3633 L72.1387,810.3633 L20,810.3633 L20,793.0527" fill="#EEEEEE" style="stroke:#000000;stroke-width:1.5;"/><rect fill="none" height="120.1973" style="stroke:#000000;stroke-width:1.5;" width="898.3486" x="20" y="793.0527"/><text fill="#000000" font-family="sans-serif" font-size="13" font-weight="bold" lengthAdjust="spacing" textLength="17.1387" x="35" y="806.6211">alt</text><text fill="#000000" font-family="sans-serif" font-size="11" font-weight="bold" lengthAdjust="spacing" textLength="52.8945" x="97.1387" y="805.6875">[missing]</text><g class="message" data-entity-1="part6" data-entity-2="part1" id="msg17"><polygon fill="#181818" points="63.7524,827.6738,53.7524,831.6738,63.7524,835.6738,59.7524,831.6738" style="stroke:#181818;stroke-width:1;"/><line style="stroke:#181818;stroke-width:1;stroke-dasharray:2,2;" x1="57.7524" x2="859.9106" y1="831.6738" y2="831.6738"/><text fill="#000000" font-family="sans-serif" font-size="13" lengthAdjust="spacing" textLength="161.9922" x="69.7524" y="826.9316">401 user no longer exists</text></g><line style="stroke:#000000;stroke-width:1;stroke-dasharray:2,2;" x1="20" x2="918.3486" y1="840.6738" y2="840.6738"/><text fill="#000000" font-family="sans-serif" font-size="11" font-weight="bold" lengthAdjust="spacing" textLength="22.1396" x="25" y="851.3086">[ok]</text><g class="message" data-entity-1="part6" data-entity-2="part5" id="msg18"><polygon fill="#181818" points="728.124,871.9395,718.124,875.9395,728.124,879.9395,724.124,875.9395" style="stroke:#181818;stroke-width:1;"/><line style="stroke:#181818;stroke-width:1;stroke-dasharray:2,2;" x1="722.124" x2="859.9106" y1="875.9395" y2="875.9395"/><text fill="#000000" font-family="sans-serif" font-size="13" lengthAdjust="spacing" textLength="119.7866" x="734.124" y="871.1973">next(); req.user set</text></g><g class="message" data-entity-1="part5" data-entity-2="part1" id="msg19"><polygon fill="#181818" points="63.7524,901.25,53.7524,905.25,63.7524,909.25,59.7524,905.25" style="stroke:#181818;stroke-width:1;"/><line style="stroke:#181818;stroke-width:1;stroke-dasharray:2,2;" x1="57.7524" x2="716.124" y1="905.25" y2="905.25"/><text fill="#000000" font-family="sans-serif" font-size="13" lengthAdjust="spacing" textLength="64.4858" x="69.7524" y="900.5078">200 {user}</text></g><?plantuml-src TLFHRXCn47ptLwpwT15DKn1FWKHA4K8W1Qe6Fi2SD-agFlkmdLpIA18VmHVsIrZRqUMkX8UJpjwPtV6C7IXeX0N-sg0f4Pv__u7xRullC9ARy3ZITaK6Ni6dZxnJeH1-JQQMJbRW7wMo3PaLBANsN99bi0u-Q48J16C2bLHB4-0gjW9dDm7T5KWFCrxt4JyykWNJCTNJNn_mfGaBT5igCuAN_JgBwqwOlw0xFXyvZ8DJ_M4cH5OAmsdI0-D_ptqmii9hgANtZNNgA1BmJ7YoYelE8vGE5JSZTa987O3CLcfIyDEglO2C7pBnD7CCRszl8K5a86lOGjAe1BAHURibJRCRJDcYe-N-_YIcw6iRC24ERfpbHA8Sppjm8W_FcdDOiNH9rEjMUVT404bOQPt3Cbpk6zocs_OiUqb6tUs_ijeaUT03SOuCyRGonO7KDKJ4CKDYgTlVhj7yH_SRDlEG0CUerR2H_8d91BJa6m6JIJVjULHrkj3G43UB7QsZfvJ56EvGEcQzJnsdWl7CUfWngoAbD3PS5hnkzUTaYeGVzF8V0UvgldWnpyXuuNO_yDooxzjdLTHohwrKDzI6N97t_F2I6nUwmePV4nWBcky2_-6EV6XJjEikBvbXS1UAmJlWLtAJk1vpodEyO7H4T7p-2m00?></g></svg>